<svg width="50" height="50" viewBox="0 0 50 50" fill="none" xmlns="http://www.w3.org/2000/svg">
<rect x="7.5" y="9.5" width="34.9048" height="12" rx="1.35714" stroke="black"/>
<path d="M14.7917 18.2987L14.8753 16.4433L13.3101 17.4502L12.8308 16.6148L14.4928 15.7662L12.8308 14.9177L13.3101 14.0823L14.8753 15.0892L14.7917 13.2338H15.7458L15.6623 15.0892L17.2275 14.0823L17.7067 14.9177L16.0448 15.7662L17.7067 16.6148L17.2275 17.4502L15.6623 16.4433L15.7458 18.2987H14.7917ZM21.2482 18.2987L21.3317 16.4433L19.7665 17.4502L19.2873 16.6148L20.9492 15.7662L19.2873 14.9177L19.7665 14.0823L21.3317 15.0892L21.2482 13.2338H22.2023L22.1187 15.0892L23.6839 14.0823L24.1632 14.9177L22.5013 15.7662L24.1632 16.6148L23.6839 17.4502L22.1187 16.4433L22.2023 18.2987H21.2482ZM27.7047 18.2987L27.7882 16.4433L26.223 17.4502L25.7438 16.6148L27.4057 15.7662L25.7438 14.9177L26.223 14.0823L27.7882 15.0892L27.7047 13.2338H28.6588L28.5752 15.0892L30.1404 14.0823L30.6197 14.9177L28.9577 15.7662L30.6197 16.6148L30.1404 17.4502L28.5752 16.4433L28.6588 18.2987H27.7047ZM34.1612 18.2987L34.2447 16.4433L32.6795 17.4502L32.2002 16.6148L33.8622 15.7662L32.2002 14.9177L32.6795 14.0823L34.2447 15.0892L34.1612 13.2338H35.1152L35.0317 15.0892L36.5969 14.0823L37.0761 14.9177L35.4142 15.7662L37.0761 16.6148L36.5969 17.4502L35.0317 16.4433L35.1152 18.2987H34.1612Z" fill="black"/>
<rect x="7.5" y="27.5" width="34.9048" height="12" rx="1.35714" stroke="black"/>
<path d="M14.7917 36.2987L14.8753 34.4433L13.3101 35.4502L12.8308 34.6148L14.4928 33.7662L12.8308 32.9177L13.3101 32.0823L14.8753 33.0892L14.7917 31.2338H15.7458L15.6623 33.0892L17.2275 32.0823L17.7067 32.9177L16.0448 33.7662L17.7067 34.6148L17.2275 35.4502L15.6623 34.4433L15.7458 36.2987H14.7917ZM21.2482 36.2987L21.3317 34.4433L19.7665 35.4502L19.2873 34.6148L20.9492 33.7662L19.2873 32.9177L19.7665 32.0823L21.3317 33.0892L21.2482 31.2338H22.2023L22.1187 33.0892L23.6839 32.0823L24.1632 32.9177L22.5013 33.7662L24.1632 34.6148L23.6839 35.4502L22.1187 34.4433L22.2023 36.2987H21.2482ZM27.7047 36.2987L27.7882 34.4433L26.223 35.4502L25.7438 34.6148L27.4057 33.7662L25.7438 32.9177L26.223 32.0823L27.7882 33.0892L27.7047 31.2338H28.6588L28.5752 33.0892L30.1404 32.0823L30.6197 32.9177L28.9577 33.7662L30.6197 34.6148L30.1404 35.4502L28.5752 34.4433L28.6588 36.2987H27.7047ZM34.1612 36.2987L34.2447 34.4433L32.6795 35.4502L32.2002 34.6148L33.8622 33.7662L32.2002 32.9177L32.6795 32.0823L34.2447 33.0892L34.1612 31.2338H35.1152L35.0317 33.0892L36.5969 32.0823L37.0761 32.9177L35.4142 33.7662L37.0761 34.6148L36.5969 35.4502L35.0317 34.4433L35.1152 36.2987H34.1612Z" fill="black"/>
</svg>
