<svg width="50" height="50" viewBox="0 0 50 50" fill="none" xmlns="http://www.w3.org/2000/svg">
<path d="M23.2239 12.4391L23.2239 12.4392H23.2302L23.2838 12.4392C23.9889 12.4391 24.4567 12.4391 24.785 12.4786C25.1223 12.5192 25.189 12.5897 25.2142 12.6249C25.2629 12.6931 25.3107 12.8475 25.3234 13.2767C25.3298 13.4911 25.3283 13.7261 25.3264 14.0066C25.3246 14.2864 25.3224 14.6115 25.3276 15.0065C25.3666 18.0146 25.3438 30.4667 25.3275 36.3207V36.3219C25.3275 37.1376 25.2291 37.4291 25.0679 37.6325C24.9782 37.7455 24.8501 37.8548 24.6429 38.0011C24.5414 38.0728 24.4277 38.1488 24.2952 38.2373L24.2903 38.2405C24.1873 38.3094 24.0746 38.3847 23.9529 38.4681H11.0161C10.7016 38.2964 10.4357 38.1763 10.224 38.0807C10.1859 38.0634 10.1495 38.047 10.1149 38.0312C9.8545 37.9123 9.73586 37.845 9.65866 37.7667C9.59779 37.7049 9.5346 37.6061 9.48914 37.3573C9.44169 37.0975 9.42106 36.7175 9.42105 36.1263C9.42105 35.3323 9.45802 33.0703 9.50461 30.2205C9.52078 29.2307 9.53812 28.1701 9.55547 27.0754C9.6227 22.8336 9.69001 18.086 9.69001 15.0011C9.69001 14.5767 9.68149 14.2116 9.6729 13.8996C9.67128 13.8408 9.66967 13.7842 9.66812 13.7297C9.66136 13.4918 9.6557 13.2927 9.65525 13.1207C9.65469 12.9076 9.66253 12.7606 9.6803 12.6551C9.69781 12.5511 9.71989 12.5205 9.72396 12.5153C9.72562 12.5132 9.72806 12.5105 9.73519 12.506C9.74347 12.5008 9.761 12.4916 9.79423 12.4814C9.86588 12.4595 9.97946 12.4422 10.165 12.4338C10.3899 12.4235 10.6631 12.4272 11.0163 12.432C11.2632 12.4353 11.5492 12.4392 11.8852 12.4392C12.5706 12.4392 13.5671 12.4358 14.7048 12.432C17.5429 12.4225 21.2603 12.4101 23.2239 12.4391Z" stroke="black" stroke-width="0.842106"/>
<path d="M31.7716 15.8582C30.1285 15.7604 30.1823 16.714 30.1823 17.5208C30.3046 21.5389 30.1823 30.1128 30.1823 32.6068C30.1823 35.1007 30.6469 35.1007 31.576 35.1007C33.6543 35.06 38.1483 35.0029 39.498 35.1007C40.8476 35.1985 41.0546 34.2287 40.9894 33.7315C40.9079 28.9555 40.9894 19.0396 40.9894 17.5208C40.9894 16.1272 40.2559 15.8582 39.8647 15.8582C37.8516 15.899 33.4147 15.956 31.7716 15.8582Z" stroke="black" stroke-width="0.842106"/>
</svg>
