<svg width="50" height="50" viewBox="0 0 50 50" fill="none" xmlns="http://www.w3.org/2000/svg">
<path d="M32.8383 13.6548C31.0314 13.5472 31.0906 14.5959 31.0906 15.4832C31.225 19.9019 31.0905 29.3309 31.0906 32.0736C31.0906 34.8163 31.6014 34.8163 32.6232 34.8163C34.9088 34.7714 39.8509 34.7087 41.3352 34.8163C42.8194 34.9238 43.0471 33.8572 42.9754 33.3105C42.8858 28.0582 42.9754 17.1535 42.9754 15.4832C42.9754 13.9505 42.1687 13.6548 41.7385 13.6548C39.5247 13.6996 34.6453 13.7623 32.8383 13.6548Z" fill="white" stroke="black" stroke-width="0.70589"/>
<path d="M33.1426 29.1519L33.1744 28.4475L32.5801 28.8297L32.3982 28.5126L33.0291 28.1904L32.3982 27.8683L32.5801 27.5512L33.1744 27.9334L33.1426 27.229H33.5049L33.4731 27.9334L34.0674 27.5512L34.2493 27.8683L33.6184 28.1904L34.2493 28.5126L34.0674 28.8297L33.4731 28.4475L33.5049 29.1519H33.1426ZM35.5938 29.1519L35.6255 28.4475L35.0313 28.8297L34.8494 28.5126L35.4803 28.1904L34.8494 27.8683L35.0313 27.5512L35.6255 27.9334L35.5938 27.229H35.956L35.9243 27.9334L36.5185 27.5512L36.7004 27.8683L36.0695 28.1904L36.7004 28.5126L36.5185 28.8297L35.9243 28.4475L35.956 29.1519H35.5938ZM38.045 29.1519L38.0767 28.4475L37.4824 28.8297L37.3005 28.5126L37.9314 28.1904L37.3005 27.8683L37.4824 27.5512L38.0767 27.9334L38.045 27.229H38.4072L38.3754 27.9334L38.9697 27.5512L39.1516 27.8683L38.5207 28.1904L39.1516 28.5126L38.9697 28.8297L38.3754 28.4475L38.4072 29.1519H38.045ZM40.4961 29.1519L40.5278 28.4475L39.9336 28.8297L39.7517 28.5126L40.3826 28.1904L39.7517 27.8683L39.9336 27.5512L40.5278 27.9334L40.4961 27.229H40.8583L40.8266 27.9334L41.4208 27.5512L41.6028 27.8683L40.9718 28.1904L41.6028 28.5126L41.4208 28.8297L40.8266 28.4475L40.8583 29.1519H40.4961Z" fill="black"/>
<rect opacity="0.5" x="7.43942" y="8.35387" width="20.4708" height="32.4709" transform="rotate(0.150909 7.43942 8.35387)" fill="#D9D9D9" stroke="black" stroke-width="0.70589"/>
<path opacity="0.5" d="M11.906 34.2794L11.9546 33.2582L11.0916 33.8102L10.829 33.3496L11.7451 32.8849L10.8314 32.4154L11.0965 31.9563L11.9566 32.5128L11.9133 31.4913L12.4385 31.4927L12.3898 32.5139L13.2529 31.9619L13.5155 32.4225L12.5994 32.8872L13.513 33.3567L13.248 33.8159L12.3879 33.2594L12.4312 34.2808L11.906 34.2794ZM15.4601 34.2888L15.5088 33.2676L14.6457 33.8195L14.3831 33.359L15.2992 32.8943L14.3856 32.4248L14.6506 31.9656L15.5108 32.5221L15.4675 31.5007L15.9927 31.502L15.944 32.5233L16.8071 31.9713L17.0697 32.4318L16.1536 32.8965L17.0672 33.3661L16.8022 33.8252L15.942 33.2687L15.9853 34.2902L15.4601 34.2888ZM19.0143 34.2982L19.063 33.2769L18.1999 33.8289L17.9373 33.3684L18.8534 32.9037L17.9397 32.4341L18.2048 31.975L19.0649 32.5315L19.0216 31.51L19.5468 31.5114L19.4981 32.5326L20.3612 31.9807L20.6238 32.4412L19.7077 32.9059L20.6214 33.3754L20.3563 33.8346L19.4962 33.2781L19.5395 34.2995L19.0143 34.2982ZM22.5684 34.3075L22.6171 33.2863L21.754 33.8383L21.4914 33.3777L22.4075 32.913L21.4939 32.4435L21.7589 31.9843L22.6191 32.5409L22.5758 31.5194L23.101 31.5208L23.0523 32.542L23.9154 31.99L24.178 32.4506L23.2619 32.9153L24.1755 33.3848L23.9105 33.8439L23.0503 33.2874L23.0936 34.3089L22.5684 34.3075Z" fill="black"/>
</svg>
