<svg width="50" height="50" viewBox="0 0 50 50" fill="none" xmlns="http://www.w3.org/2000/svg">
<rect x="12.5" y="12.5" width="24" height="24" rx="1.35714" stroke="black"/>
<path d="M18.3536 20.3536C18.5488 20.1583 18.5488 19.8417 18.3536 19.6464L15.1716 16.4645C14.9763 16.2692 14.6597 16.2692 14.4645 16.4645C14.2692 16.6597 14.2692 16.9763 14.4645 17.1716L17.2929 20L14.4645 22.8284C14.2692 23.0237 14.2692 23.3403 14.4645 23.5355C14.6597 23.7308 14.9763 23.7308 15.1716 23.5355L18.3536 20.3536ZM2 20.5L18 20.5V19.5L2 19.5L2 20.5Z" fill="black"/>
<path d="M44.3536 20.3536C44.5488 20.1583 44.5488 19.8417 44.3536 19.6464L41.1716 16.4645C40.9763 16.2692 40.6597 16.2692 40.4645 16.4645C40.2692 16.6597 40.2692 16.9763 40.4645 17.1716L43.2929 20L40.4645 22.8284C40.2692 23.0237 40.2692 23.3403 40.4645 23.5355C40.6597 23.7308 40.9763 23.7308 41.1716 23.5355L44.3536 20.3536ZM29 20.5H44V19.5H29V20.5Z" fill="black"/>
<path d="M44.3536 29.3536C44.5488 29.1583 44.5488 28.8417 44.3536 28.6464L41.1716 25.4645C40.9763 25.2692 40.6597 25.2692 40.4645 25.4645C40.2692 25.6597 40.2692 25.9763 40.4645 26.1716L43.2929 29L40.4645 31.8284C40.2692 32.0237 40.2692 32.3403 40.4645 32.5355C40.6597 32.7308 40.9763 32.7308 41.1716 32.5355L44.3536 29.3536ZM29 29.5H44V28.5H29V29.5Z" fill="black"/>
</svg>
