<svg width="50" height="50" viewBox="0 0 50 50" fill="none" xmlns="http://www.w3.org/2000/svg">
<path d="M34.1622 4.52816L34.1622 4.52822H34.1696L34.2651 4.52821C35.3527 4.52816 36.0896 4.52813 36.6106 4.59082C37.1476 4.65543 37.3085 4.77264 37.3874 4.88285C37.4941 5.03214 37.5668 5.31885 37.5866 5.98436C37.5966 6.31788 37.5942 6.68932 37.5913 7.13071C37.5885 7.56854 37.5852 8.0752 37.5931 8.68194C37.654 13.3698 37.6185 32.771 37.5931 41.8903V41.8917C37.5931 42.038 37.5937 42.1767 37.5944 42.3086C37.5967 42.7813 37.5986 43.1679 37.5674 43.5109C37.5285 43.9376 37.4421 44.2282 37.2824 44.4565C37.1243 44.6825 36.8559 44.9018 36.3499 45.1079C35.8385 45.3161 35.1162 45.498 34.0895 45.6645C33.0434 45.8342 32.3225 45.9761 31.7469 46.0895L31.7148 46.0958C31.1326 46.2105 30.7133 46.2921 30.2455 46.3465C29.3094 46.4554 28.1577 46.4579 25.1991 46.3441C22.2623 46.2311 19.7231 45.9943 17.9188 45.7857C17.0169 45.6815 16.299 45.5843 15.8074 45.5134C15.5616 45.4779 15.3725 45.449 15.2452 45.4291C15.1815 45.4191 15.1334 45.4113 15.1013 45.4061L15.0654 45.4002L15.0567 45.3988L15.0547 45.3984L15.0543 45.3984L15.0543 45.3984L15.0542 45.3983L15.0347 45.3951L15.0149 45.3933C13.9114 45.2965 13.3848 45.1456 13.0621 44.7414C12.8943 44.5313 12.7498 44.2121 12.6498 43.6964C12.5497 43.1799 12.5 42.4972 12.5 41.587C12.5 40.3486 12.5576 36.8223 12.6302 32.3814C12.6554 30.84 12.6824 29.1883 12.7094 27.4839C12.8142 20.8752 12.919 13.4801 12.919 8.67545C12.919 8.01639 12.9058 7.44928 12.8924 6.96369C12.8899 6.87264 12.8874 6.78481 12.885 6.70002C12.8745 6.32926 12.8656 6.0166 12.8649 5.7464C12.864 5.41249 12.8761 5.17267 12.9061 4.99473C12.9357 4.81859 12.9769 4.74222 13.0057 4.70586C13.0538 4.6453 13.1865 4.54834 13.8078 4.51996C14.162 4.50378 14.5953 4.50961 15.1509 4.51708C15.5355 4.52225 15.9787 4.52822 16.4949 4.52822C17.5616 4.52822 19.113 4.52302 20.8847 4.51709C25.3067 4.50229 31.1015 4.48289 34.1622 4.52816Z" stroke="black"/>
<rect x="16.1138" y="7.76125" width="18.208" height="13.7131" rx="0.723749" fill="black" stroke="black" stroke-width="0.380921"/>
<rect x="13.4307" y="29.3047" width="1.55697" height="2.09026" rx="0.435657" stroke="black" stroke-width="0.5"/>
<rect x="13.4307" y="32.2759" width="1.55697" height="2.09026" rx="0.435657" stroke="black" stroke-width="0.5"/>
<rect x="15.7925" y="32.4282" width="1.55697" height="2.09026" rx="0.435657" stroke="black" stroke-width="0.5"/>
<rect x="18.2305" y="32.5044" width="1.55697" height="2.09026" rx="0.435657" stroke="black" stroke-width="0.5"/>
<rect x="20.668" y="32.6568" width="1.55697" height="2.09026" rx="0.435657" stroke="black" stroke-width="0.5"/>
<rect x="23.1064" y="32.6568" width="1.55697" height="2.09026" rx="0.435657" stroke="black" stroke-width="0.5"/>
<rect x="25.4678" y="32.5806" width="1.55697" height="2.09026" rx="0.435657" stroke="black" stroke-width="0.5"/>
<rect x="27.9058" y="32.5806" width="1.55697" height="2.09026" rx="0.435657" stroke="black" stroke-width="0.5"/>
<rect x="30.3438" y="32.5044" width="1.55697" height="2.09026" rx="0.435657" stroke="black" stroke-width="0.5"/>
<rect x="32.7056" y="32.3521" width="1.55697" height="2.09026" rx="0.435657" stroke="black" stroke-width="0.5"/>
<rect x="35.1431" y="32.2759" width="1.55697" height="2.09026" rx="0.435657" stroke="black" stroke-width="0.5"/>
<rect x="35.1431" y="35.1709" width="1.55697" height="2.09026" rx="0.435657" stroke="black" stroke-width="0.5"/>
<rect x="32.7056" y="35.3994" width="1.55697" height="2.09026" rx="0.435657" stroke="black" stroke-width="0.5"/>
<rect x="30.3438" y="35.4756" width="1.55697" height="2.09026" rx="0.435657" stroke="black" stroke-width="0.5"/>
<rect x="27.9058" y="35.5518" width="1.55697" height="2.09026" rx="0.435657" stroke="black" stroke-width="0.5"/>
<rect x="25.4678" y="35.5518" width="1.55697" height="2.09026" rx="0.435657" stroke="black" stroke-width="0.5"/>
<rect x="23.0303" y="35.5518" width="1.55697" height="2.09026" rx="0.435657" stroke="black" stroke-width="0.5"/>
<rect x="20.668" y="35.5518" width="1.55697" height="2.09026" rx="0.435657" stroke="black" stroke-width="0.5"/>
<rect x="18.2305" y="35.5518" width="1.55697" height="2.09026" rx="0.435657" stroke="black" stroke-width="0.5"/>
<rect x="15.7925" y="35.3994" width="1.55697" height="2.09026" rx="0.435657" stroke="black" stroke-width="0.5"/>
<rect x="13.4307" y="35.2471" width="1.55697" height="2.09026" rx="0.435657" stroke="black" stroke-width="0.5"/>
<rect x="13.4307" y="38.1421" width="1.55697" height="2.09026" rx="0.435657" stroke="black" stroke-width="0.5"/>
<rect x="15.7925" y="38.2944" width="1.55697" height="2.09026" rx="0.435657" stroke="black" stroke-width="0.5"/>
<rect x="18.2305" y="38.4468" width="1.55697" height="2.09026" rx="0.435657" stroke="black" stroke-width="0.5"/>
<rect x="20.668" y="38.523" width="1.55697" height="2.09026" rx="0.435657" stroke="black" stroke-width="0.5"/>
<rect x="23.1064" y="38.5992" width="1.55697" height="2.09026" rx="0.435657" stroke="black" stroke-width="0.5"/>
<rect x="25.4678" y="38.5992" width="1.55697" height="2.09026" rx="0.435657" stroke="black" stroke-width="0.5"/>
<rect x="27.9058" y="38.523" width="1.55697" height="2.09026" rx="0.435657" stroke="black" stroke-width="0.5"/>
<rect x="30.2676" y="38.4468" width="1.55697" height="2.09026" rx="0.435657" stroke="black" stroke-width="0.5"/>
<rect x="32.7056" y="38.2944" width="1.55697" height="2.09026" rx="0.435657" stroke="black" stroke-width="0.5"/>
<rect x="35.1431" y="38.1421" width="1.55697" height="2.09026" rx="0.435657" stroke="black" stroke-width="0.5"/>
<rect x="15.7925" y="29.5332" width="1.55697" height="2.09026" rx="0.435657" stroke="black" stroke-width="0.5"/>
<rect x="18.2305" y="29.6094" width="1.55697" height="2.09026" rx="0.435657" stroke="black" stroke-width="0.5"/>
<rect x="20.5923" y="29.6856" width="1.55697" height="2.09026" rx="0.435657" stroke="black" stroke-width="0.5"/>
<rect x="23.0303" y="29.7618" width="1.55697" height="2.09026" rx="0.435657" stroke="black" stroke-width="0.5"/>
<rect x="25.4678" y="29.6856" width="1.55697" height="2.09026" rx="0.435657" stroke="black" stroke-width="0.5"/>
<rect x="27.9058" y="29.6856" width="1.55697" height="2.09026" rx="0.435657" stroke="black" stroke-width="0.5"/>
<rect x="30.3438" y="29.6094" width="1.55697" height="2.09026" rx="0.435657" stroke="black" stroke-width="0.5"/>
<rect x="32.7056" y="29.4571" width="1.55697" height="2.09026" rx="0.435657" stroke="black" stroke-width="0.5"/>
<rect x="35.1431" y="29.3047" width="1.55697" height="2.09026" rx="0.435657" stroke="black" stroke-width="0.5"/>
<path d="M20.0423 25.4358L20.0423 25.4364L20.0521 25.4345C20.1363 25.4177 20.2368 25.3972 20.3495 25.3742C20.7485 25.293 21.2986 25.1809 21.8027 25.092C22.0997 25.0395 22.2674 25.1206 22.3654 25.2341C22.4679 25.353 22.507 25.5221 22.5132 25.6661V27.6072C22.5132 27.8334 22.3998 27.9655 22.2534 28.0438C22.1052 28.1231 21.9241 28.1457 21.8001 28.1409C21.4779 28.0637 20.7112 27.8899 20.164 27.7987C19.6419 27.7117 19.542 27.4335 19.542 27.3406V25.9692C19.542 25.7652 19.6256 25.6377 19.7272 25.5577C19.8319 25.4753 19.9593 25.4413 20.0423 25.4358Z" fill="black" stroke="black" stroke-width="0.152368"/>
<path d="M20.7612 26.3502V27.0739" stroke="black" stroke-width="0.152368"/>
<path d="M30.2028 25.4532L30.2028 25.4539L30.193 25.4519C30.1089 25.4351 30.0083 25.4146 29.8956 25.3916C29.4967 25.3104 28.9466 25.1983 28.4424 25.1094C28.1454 25.057 27.9777 25.138 27.8797 25.2515C27.7772 25.3704 27.7382 25.5395 27.7319 25.6835V27.6246C27.7319 27.8508 27.8453 27.9829 27.9917 28.0612C28.1399 28.1406 28.3211 28.1631 28.4451 28.1583C28.7673 28.0811 29.534 27.9073 30.0811 27.8161C30.6032 27.7291 30.7031 27.4509 30.7031 27.358V25.9867C30.7031 25.7826 30.6195 25.6551 30.5179 25.5751C30.4132 25.4927 30.2858 25.4587 30.2028 25.4532Z" fill="black" stroke="black" stroke-width="0.152368"/>
<path d="M29.4844 26.3676V27.0913" stroke="black" stroke-width="0.152368"/>
<path d="M26.5893 26.274C26.3989 26.4644 26.4595 27.0993 26.6655 27.1501" stroke="black" stroke-width="0.152368" stroke-linecap="round"/>
<path d="M23.542 26.2359C23.7325 26.4264 23.6718 27.0612 23.4658 27.112" stroke="black" stroke-width="0.152368" stroke-linecap="round"/>
<path d="M24.7607 25.2074H25.4845" stroke="black" stroke-width="0.152368"/>
<path d="M23.3511 24.8265V25.8931C23.3511 26.3121 23.7066 26.2867 23.8844 26.3121H26.1699C26.566 26.3121 26.8555 26.3121 26.8555 25.8931V24.8265C26.8555 24.3084 26.1953 24.2297 25.8652 24.2551H24.1129C23.5949 24.2551 23.3892 24.636 23.3511 24.8265Z" fill="black" stroke="black" stroke-width="0.152368"/>
<path d="M24.7227 28.1786H25.4464" stroke="black" stroke-width="0.152368"/>
<path d="M23.3135 28.5595V27.4929C23.3135 27.0739 23.669 27.0993 23.8468 27.0739H26.1323C26.5284 27.0739 26.8179 27.0739 26.8179 27.4929V28.5595C26.8179 29.0776 26.1577 29.1563 25.8276 29.1309H24.0753C23.5573 29.1309 23.3516 28.75 23.3135 28.5595Z" fill="black" stroke="black" stroke-width="0.152368"/>
</svg>
