<svg width="50" height="50" viewBox="0 0 50 50" fill="none" xmlns="http://www.w3.org/2000/svg">
<path d="M37.8956 32.8351C37.8731 33.4433 38.3478 33.9545 38.956 33.9771C39.5641 33.9996 40.0754 33.5249 40.0979 32.9167L37.8956 32.8351ZM12 32.8759L21.2822 24.1732L9.10434 20.4859L12 32.8759ZM38.9968 32.8759C40.0979 32.9167 40.098 32.9162 40.098 32.9156C40.098 32.9153 40.098 32.9146 40.098 32.914C40.0981 32.9129 40.0981 32.9116 40.0982 32.91C40.0983 32.9069 40.0984 32.9028 40.0986 32.8979C40.0988 32.888 40.0992 32.8745 40.0996 32.8576C40.1003 32.8238 40.1011 32.7762 40.1015 32.7157C40.1022 32.5947 40.1013 32.4219 40.095 32.2047C40.0824 31.7707 40.0482 31.1571 39.9621 30.4232C39.7907 28.9615 39.4102 26.9919 38.5644 25.0062C37.7176 23.0178 36.3892 20.9793 34.3063 19.4385C32.212 17.8893 29.4283 16.8981 25.774 16.8981V19.1019C29.0067 19.1019 31.3193 19.9702 32.9956 21.2102C34.6833 22.4587 35.7997 24.1391 36.5368 25.8697C37.2751 27.603 37.6176 29.3524 37.7733 30.6799C37.8507 31.3407 37.8811 31.8892 37.8921 32.2687C37.8976 32.4583 37.8983 32.6051 37.8977 32.702C37.8974 32.7505 37.8968 32.7864 37.8963 32.8089C37.896 32.8201 37.8958 32.828 37.8957 32.8324C37.8956 32.8346 37.8956 32.836 37.8956 32.8364C37.8956 32.8366 37.8956 32.8366 37.8956 32.8364C37.8956 32.8363 37.8956 32.836 37.8956 32.8359C37.8956 32.8356 37.8956 32.8351 38.9968 32.8759ZM25.774 16.8981C19.7779 16.8981 16.1223 19.5646 13.9606 22.7678L15.7873 24.0006C17.5687 21.361 20.5613 19.1019 25.774 19.1019V16.8981Z" fill="black"/>
</svg>
