<svg width="50" height="50" viewBox="0 0 50 50" fill="none" xmlns="http://www.w3.org/2000/svg">
<g clip-path="url(#clip0_67_4653)">
<rect x="12.5571" y="12.5571" width="24.5143" height="24.5143" fill="#D3F800" stroke="black" stroke-width="1.11429"/>
<path d="M37.2289 10.2198L37.4005 11.2303L38.0912 10.473L43.0361 5.05162L40.1588 11.8018L39.7569 12.7447L40.7473 12.481L47.8383 10.5936L41.7683 14.7166L40.9205 15.2925L41.8962 15.6063L48.8819 17.8521L41.5464 18.039L40.5218 18.065L41.1731 18.8565L45.8356 24.5226L39.5636 20.7139L38.6876 20.1819L38.8075 21.1998L39.6666 28.4872L36.4494 21.8922L36 20.971L35.5506 21.8922L32.3334 28.4872L33.1925 21.1998L33.3124 20.1819L32.4364 20.7139L26.1644 24.5226L30.8269 18.8565L31.4782 18.065L30.4536 18.039L23.1181 17.8521L30.1038 15.6063L31.0796 15.2925L30.2317 14.7166L24.1617 10.5936L31.2527 12.481L32.2431 12.7447L31.8412 11.8018L28.9639 5.05162L33.9088 10.473L34.5995 11.2303L34.7711 10.2198L36 2.98563L37.2289 10.2198Z" fill="#D3F800" stroke="black"/>
</g>
<defs>
<clipPath id="clip0_67_4653">
<rect width="50" height="50" fill="white"/>
</clipPath>
</defs>
</svg>
