<svg width="50" height="50" viewBox="0 0 50 50" fill="none" xmlns="http://www.w3.org/2000/svg">
<rect x="17.9781" y="10.1295" width="14.5" height="9.83929" fill="black" stroke="black" stroke-width="0.258929"/>
<rect x="32.7369" y="10.6473" width="1.8125" height="1.03571" fill="black" stroke="black" stroke-width="0.258929"/>
<rect x="32.7369" y="12.9777" width="1.8125" height="1.03571" fill="black" stroke="black" stroke-width="0.258929"/>
<rect x="32.7369" y="15.567" width="1.8125" height="1.03571" fill="black" stroke="black" stroke-width="0.258929"/>
<rect x="32.7369" y="18.1562" width="1.8125" height="1.03571" fill="black" stroke="black" stroke-width="0.258929"/>
<rect x="15.7764" y="10.5179" width="2.07143" height="1.29464" fill="black"/>
<rect x="15.7764" y="12.8482" width="2.07143" height="1.29464" fill="black"/>
<rect x="15.7764" y="15.4375" width="2.07143" height="1.29464" fill="black"/>
<rect x="15.7764" y="18.0268" width="2.07143" height="1.29464" fill="black"/>
<rect x="17.8486" y="23.7232" width="14.7589" height="15.2768" fill="black"/>
<rect x="32.6074" y="25.2768" width="2.84821" height="1.8125" fill="black"/>
<rect x="32.6074" y="29.9375" width="2.84821" height="1.8125" fill="black"/>
<rect x="32.6074" y="34.5982" width="2.84821" height="1.8125" fill="black"/>
<rect x="15" y="34.5982" width="2.84821" height="1.8125" fill="black"/>
<rect x="15" y="29.9375" width="2.84821" height="1.8125" fill="black"/>
<rect x="15" y="25.2768" width="2.84821" height="1.8125" fill="black"/>
</svg>
